<svg id="Layer_1" data-name="Layer 1" xmlns="http://www.w3.org/2000/svg" viewBox="0 0 299.42 140.83"><defs><style>.cls-1{fill:#213149;}.cls-2{fill:#f29100;}</style></defs><title>Artboard 5 copy</title><path class="cls-1" d="M59.22,47.25h0c11.39,15.62,21.66,33,21.66,40.17a21.64,21.64,0,0,1-.39,4h0q2.61,1.82,5.17,3.8h0a27.49,27.49,0,0,0,1.14-7.85c0-11.91-18.18-37.88-27.61-50.07h0C53.15,45.2,43.46,58.77,37.32,70.61c0,0,0,0,0,0L43,72.54A223.65,223.65,0,0,1,59.22,47.25Z"/><path class="cls-2" d="M59.23,109.09A21.69,21.69,0,0,1,37.56,87.42c0-2.25,1-5.52,2.78-9.44h0l-5.66-1.84c-1.89,4.36-3.06,8.27-3.06,11.29A27.6,27.6,0,0,0,83.3,100.93s0,0,0,0L78.5,97.3A21.69,21.69,0,0,1,59.23,109.09Z"/><path class="cls-1" d="M41.46,52c7.63-11.59,15.38-21.24,15.46-21.33l2.3-2.87h0l2.31,2.87c.07.09,7.82,9.74,15.45,21.33,10.47,15.9,15.78,27.81,15.78,35.41a33.37,33.37,0,0,1-2.15,11.82s0,0,0,.05l4.65,4.13a0,0,0,0,0,0,0,39.17,39.17,0,0,0,3.4-16c0-8.9-5.49-21.55-16.76-38.68C74.23,37,66.5,27.36,66.18,27l-2.32-2.88-4.62-5.74s0,0,0,0L54.6,24.08,52.29,27C52,27.36,44.23,37,36.49,48.74A169.23,169.23,0,0,0,25.65,67.37s0,0,0,0l5.85,1.55A171,171,0,0,1,41.46,52Z"/><path class="cls-2" d="M59.23,121A33.59,33.59,0,0,1,25.68,87.42c0-3.44,1.1-7.77,3.26-13a0,0,0,0,0,0,0L23.14,73c-2.27,5.62-3.41,10.42-3.41,14.44a39.48,39.48,0,0,0,72.6,21.5,0,0,0,0,0,0,0l-4.39-4.11h0A33.55,33.55,0,0,1,59.23,121Z"/><path class="cls-1" d="M59,101.09A14.46,14.46,0,0,1,44.58,86.65c0-7,10.1-19.93,12.13-22.44L59,61.33l2.32,2.88c2,2.51,12.12,15.42,12.12,22.44A14.46,14.46,0,0,1,59,101.09ZM59,71c-4.07,5.52-8.5,12.66-8.5,15.7a8.5,8.5,0,1,0,17,0C67.52,83.6,63.1,76.46,59,71Z"/><path class="cls-1" d="M119,53.66H116.3V69.78h-5.77V31.65h8.33c6.21,0,9.59,3.38,9.59,9.64V44c0,4-1.42,6.87-4.09,8.39l5.29,17.38h-6.1Zm-2.67-5.34h2.34c2.78,0,4-1.47,4-4.69v-2c0-3.21-1.25-4.68-4-4.68H116.3Z"/><path class="cls-1" d="M140.16,37V47.77h8.45v5.34h-8.45V64.44h10.46v5.34H134.39V31.65h16.23V37Z"/><path class="cls-1" d="M171.49,39.82v1.09l-5.56.54v-1.2c0-2.61-1-3.81-3-3.81-1.69,0-2.89.93-2.89,3.11v.81c0,2.13,1.09,3.87,4.85,7.3,5.12,4.74,6.86,7.85,6.86,12.26v1.85c0,5.61-3.54,8.55-8.82,8.55S154,67.22,154,61.61V59.1l5.56-.54v2.61c0,2.56,1.2,3.82,3.27,3.82,1.74,0,3.16-.93,3.16-3.65v-1.2c0-2.4-1.09-4.14-4.85-7.57-5.12-4.74-6.87-7.85-6.87-12v-.92c0-5.62,3.27-8.56,8.61-8.56S171.49,34.21,171.49,39.82Z"/><path class="cls-1" d="M176,69.78V31.65h5.78V69.78Z"/><path class="cls-1" d="M204,64.33v5.45H188.54V31.65h5.77V64.33Z"/><path class="cls-1" d="M208.21,69.78V31.65H214V69.78Z"/><path class="cls-1" d="M226.51,37V47.77H235v5.34h-8.45V64.44H237v5.34H220.74V31.65H237V37Z"/><path class="cls-1" d="M255.55,69.78,248,44.5h-.11V69.78h-5.45V31.65h6.43l6.81,22.71h.11V31.65h5.44V69.78Z"/><path class="cls-1" d="M277.34,37.1V69.78h-5.77V37.1h-6.16V31.65H283.5V37.1Z"/><path class="cls-2" d="M128.34,89.78v3.43l-5.56.28V90.38c0-3-1.14-4.41-3.27-4.41s-3.26,1.36-3.26,3.87v20.81c0,2.5,1.14,3.86,3.26,3.86s3.27-1.36,3.27-4.41v-4.25l5.56.27v4.58c0,5.77-3.32,9.15-9,9.15s-8.88-3.38-8.88-9.15V89.78c0-5.77,3.27-9.15,8.88-9.15S128.34,84,128.34,89.78Z"/><path class="cls-2" d="M151.93,90.27v19.94c0,6-3.54,9.64-9.32,9.64s-9.31-3.65-9.31-9.64V90.27c0-6,3.54-9.64,9.31-9.64S151.93,84.28,151.93,90.27Zm-12.86.06v19.83c0,2.83,1.26,4.35,3.54,4.35s3.54-1.52,3.54-4.35V90.33c0-2.84-1.25-4.36-3.54-4.36S139.07,87.49,139.07,90.33Z"/><path class="cls-2" d="M170.4,119.31l-1.25-8.66h-6.38l-1.25,8.66h-5.77l6.59-38.13h7.35l6.59,38.13Zm-6.87-13.89h4.85L166,89.35h-.16Z"/><path class="cls-2" d="M196.49,89.35v1.09l-5.55.54v-1.2c0-2.61-1-3.81-3-3.81-1.69,0-2.89.93-2.89,3.1v.82c0,2.13,1.09,3.87,4.85,7.3,5.12,4.74,6.87,7.85,6.87,12.26v1.85c0,5.61-3.54,8.55-8.83,8.55s-8.93-3.1-8.93-8.71v-2.51l5.55-.54v2.61c0,2.56,1.2,3.81,3.27,3.81,1.75,0,3.16-.92,3.16-3.65v-1.19c0-2.4-1.09-4.14-4.85-7.58-5.12-4.74-6.86-7.84-6.86-12v-.93c0-5.61,3.27-8.55,8.61-8.55S196.49,83.74,196.49,89.35Z"/><path class="cls-2" d="M210.33,86.62v32.69h-5.77V86.62H198.4V81.18h18.09v5.44Z"/><path class="cls-2" d="M236.1,89.35v1.09l-5.56.54v-1.2c0-2.61-1-3.81-3-3.81-1.69,0-2.89.93-2.89,3.1v.82c0,2.13,1.09,3.87,4.85,7.3,5.12,4.74,6.86,7.85,6.86,12.26v1.85c0,5.61-3.54,8.55-8.82,8.55s-8.94-3.1-8.94-8.71v-2.51l5.56-.54v2.61c0,2.56,1.2,3.81,3.27,3.81,1.74,0,3.16-.92,3.16-3.65v-1.19c0-2.4-1.09-4.14-4.85-7.58-5.12-4.74-6.86-7.84-6.86-12v-.93c0-5.61,3.27-8.55,8.6-8.55S236.1,83.74,236.1,89.35Z"/></svg>